<svg xmlns="http://www.w3.org/2000/svg" width="16" height="16" viewBox="0 0 16 16">
    <path fill="#000" fill-rule="nonzero" d="M8 0C3.584 0 0 3.584 0 8s3.584 8 8 8 8-3.584 8-8-3.584-8-8-8zm.4 13.6h-.8a.4.4 0 0 1-.4-.4v-.8c0-.22.18-.4.4-.4h.8c.22 0 .4.18.4.4v.8a.4.4 0 0 1-.4.4zm2.056-6.2l-.72.736C9.16 8.72 8.8 9.2 8.8 10.4H7.2V10c0-.88.36-1.68.936-2.264l.992-1.008a1.58 1.58 0 0 0 .442-1.442 1.595 1.595 0 0 0-1.11-1.221 1.607 1.607 0 0 0-1.974 1.017c-.102.297-.352.518-.666.518h-.233a.696.696 0 0 1-.66-.898 3.202 3.202 0 0 1 2.58-2.264c1.22-.188 2.375.439 3.099 1.439.944 1.305.665 2.708-.15 3.523z"/>
</svg>
