<svg xmlns="http://www.w3.org/2000/svg" width="62" height="62" viewBox="0 0 62 62">
    <g fill="none" fill-rule="nonzero">
        <path fill="#0054FF" d="M31 0C13.907 0 0 13.907 0 31s13.907 31 31 31 31-13.907 31-31S48.093 0 31 0z"/>
        <path fill="#FFF" d="M31 12.4c5.27 0 9.3 4.03 9.3 9.3v3.1c1.86 0 3.1 1.24 3.1 3.1v12.4c0 1.86-1.24 3.1-3.1 3.1H21.7c-1.86 0-3.1-1.24-3.1-3.1V27.9c0-1.86 1.24-3.1 3.1-3.1v-3.1c0-5.27 4.03-9.3 9.3-9.3z"/>
        <path fill="#0054FF" d="M31 17.05c-2.48 0-4.65 2.17-4.65 4.65v3.1h9.3v-3.1c0-2.48-2.17-4.65-4.65-4.65zM31 31a3.1 3.1 0 1 0 0 6.2 3.1 3.1 0 0 0 0-6.2z"/>
    </g>
</svg>
