<?xml version="1.0" encoding="UTF-8"?>
<svg width="62px" height="62px" viewBox="0 0 133 133" version="1.1" xmlns="http://www.w3.org/2000/svg" xmlns:xlink="http://www.w3.org/1999/xlink">
    <g id="Operator" stroke="none" stroke-width="1" fill="none" fill-rule="evenodd">
        <g id="OBS-—-NotApproved" transform="translate(-1014.000000, -152.000000)" fill="#e43c34">
            <g id="logo-sora" transform="translate(1014.000000, 152.000000)">
                <path d="M67.019,77.999 L98.4297296,124.847245 C88.9525663,130.04452 78.0714278,133 66.5,133 C55.2533334,133 44.6587528,130.208088 35.3715244,125.279529 L66.979,77.999 L67.019,77.999 Z M66.5,0 C103.226936,0 133,29.7730641 133,66.5 C133,87.7190904 123.061802,106.61699 107.586152,118.792952 L72.599,66.787 L72.599,66.399 L107.4,66.4 L107.4,55.8 L72.399,55.799 L72.399,44.3 L107.4,44.3 L107.4,33.7 L26.4,33.7 L26.4,44.3 L61.499,44.3 L61.499,55.799 L26.6,55.8 L26.6,66.4 L61.399,66.399 L61.399,66.879 L25.9403645,119.202964 C10.1639751,107.043607 0,87.9587652 0,66.5 C0,29.7730641 29.7730641,0 66.5,0 Z" id="sora"></path>
            </g>
        </g>
    </g>
</svg>
