<svg xmlns="http://www.w3.org/2000/svg" width="14" height="14" viewBox="0 0 14 14">
    <path fill="#FFF" fill-rule="nonzero" d="M6.89.001c-.376.006-.76.04-1.146.108C2.924.604.644 2.856.123 5.672A7.01 7.01 0 0 0 7 14c3.595 0 6.565-2.724 6.956-6.215a.706.706 0 0 0-.7-.785.688.688 0 0 0-.689.606A5.609 5.609 0 0 1 7 12.6a5.609 5.609 0 0 1-5.488-6.733 5.58 5.58 0 0 1 4.304-4.344 5.587 5.587 0 0 1 5.135 1.527l-1 1.001a.497.497 0 0 0 .35.849H13.3a.7.7 0 0 0 .7-.7V1.202a.497.497 0 0 0-.849-.353L11.94 2.06A6.959 6.959 0 0 0 6.89.001z"/>
</svg>
